#Made with Xpand's RNG ship generator v1.0
mtllib RNGSHIP.mtl
o RNGSHIP
v 0.127690 0.000000 5.645000
v -0.127690 0.000000 5.645000
v 0.127690 0.436792 2.822500
v -0.127690 0.436792 2.822500
v 0.587374 0.000000 2.822500
v -0.587374 0.000000 2.822500
v 0.281224 0.290904 2.655500
v -0.281224 0.290904 2.655500
v 0.127690 0.873585 0.000000
v -0.127690 0.873585 0.000000
v 0.842754 0.000000 0.705625
v -0.842754 0.000000 0.705625
v 0.408317 0.530747 0.276923
v -0.408317 0.530747 0.276923
v 1.455666 -0.206014 -0.176406
v -1.455666 -0.206014 -0.176406
v 0.714773 0.427740 -0.463984
v -0.714773 0.427740 -0.463984
v 0.638450 0.312092 -2.709600
v -0.638450 0.312092 -2.709600
v 0.383070 0.579599 -2.935400
v -0.383070 0.579599 -2.935400
v 1.455666 -0.206014 -0.176406
v -1.455666 -0.206014 -0.176406
v 0.638450 0.312092 -2.709600
v -0.638450 0.312092 -2.709600
v 2.221806 -0.721049 0.227094
v -2.221806 -0.721049 0.227094
v 2.221806 -0.721049 -0.272906
v -2.221806 -0.721049 -0.272906
#30 Vertices
vn 0.000000 0.720810 0.111548
vn 0.000000 0.720810 0.111548
vn 0.821076 0.940874 0.133724
vn 0.484715 0.433351 0.067063
vn -0.821076 0.940874 0.133724
vn -0.484715 0.433351 0.067063
vn -0.000000 -0.720810 -0.000000
vn -0.000000 -3.315726 -0.000000
vn 0.000000 0.720810 0.111548
vn 0.000000 0.720810 0.111548
vn 0.484715 0.433351 0.067063
vn 0.749050 0.702688 0.110878
vn -0.484715 0.433351 0.067063
vn -0.749050 0.702688 0.110879
vn 0.651883 0.749425 0.110399
vn 1.123524 1.029131 0.135542
vn -0.651883 0.749425 0.110399
vn -1.123524 1.029131 0.135542
vn -0.000000 -2.486794 -0.000000
vn -0.000000 -3.568010 -0.000000
vn -0.000000 0.749642 -0.075078
vn -0.000000 2.248927 -0.225234
vn -0.000000 -5.756390 -0.526033
vn 0.000000 -4.360900 -0.398510
vn 0.282536 0.292783 0.076158
vn 1.172330 1.604831 -0.058734
vn -0.282536 0.292783 0.076158
vn -1.172330 1.604831 -0.058734
vn 1.456425 1.641813 -0.134053
vn 0.626832 0.556252 -0.049951
vn -1.456425 1.641813 -0.134053
vn -0.626832 0.556252 -0.049951
vn 0.437393 0.453256 0.117900
vn 0.618235 0.829751 0.235801
vn -0.437393 0.453256 0.117900
vn -0.618235 0.829751 0.235801
vn -0.978859 -2.273435 -0.149195
vn 0.978859 -2.273435 -0.149195
vn -0.000000 -0.172994 -0.204948
vn -0.000000 -0.288324 -0.341580
vn 1.095627 1.611034 -0.023953
vn 0.516570 0.791678 0.000000
vn -1.095628 1.611034 -0.023953
vn -0.516570 0.791678 -0.000000
#44 Normals
vt 0.000000 1.000000
vt 0.487500 0.960965
vt 0.363711 0.987500
vt 0.301630 0.512500
vt 0.301630 0.960965
vt 0.136289 0.987500
vt 0.012500 0.960965
vt 0.198370 0.512500
vt 0.198370 0.960965
vt 0.365069 0.987500
vt 0.329253 0.543662
vt 0.415530 0.512500
vt 0.487500 0.907505
vt 0.170747 0.543662
vt 0.134931 0.987500
vt 0.084470 0.512500
vt 0.012500 0.907505
vt 0.365069 0.568428
vt 0.451433 0.665085
vt 0.285985 0.604554
vt 0.357955 0.987500
vt 0.048567 0.665085
vt 0.134931 0.568428
vt 0.214015 0.604554
vt 0.142045 0.987500
vt 0.487500 0.512500
vt 0.012500 0.512500
vt 0.422235 0.750706
vt 0.487500 0.987500
vt 0.406627 0.987500
vt 0.987500 0.512500
vt 0.987500 0.987500
vt 0.512500 0.512500
vt 0.512500 0.987500
vt 0.854167 0.948625
vt 0.866619 0.562011
vt 0.812500 0.987500
vt 0.645833 0.948625
vt 0.633381 0.562011
vt 0.687500 0.987500
vt 0.172917 0.172973
vt 0.135417 0.012500
vt 0.114583 0.012500
vt 0.077083 0.172973
vt 0.193750 0.293328
vt 0.056250 0.293328
vt 0.177083 0.487500
vt 0.072917 0.487500
vt 0.243750 0.343476
vt 0.006250 0.343476
vt 0.414583 0.012500
vt 0.493750 0.487500
vt 0.335417 0.012500
vt 0.256250 0.487500
vt 0.662136 0.256250
vt 0.662136 0.493750
vt 0.587864 0.256250
vt 0.587864 0.493750
vt 0.706788 0.270302
vt 0.743750 0.470448
vt 0.543212 0.270302
vt 0.506250 0.470448
vt 0.943750 0.256250
vt 0.993750 0.435355
vt 0.933310 0.493750
vt 0.806250 0.256250
vt 0.816690 0.493750
vt 0.756250 0.435355
vt 0.946250 0.006250
vt 0.993750 0.243750
vt 0.803750 0.006250
vt 0.756250 0.243750
#72 UVs
usemtl ShipMaterial
s 1
f 1/31/1 3/32/1 2/33/1
f 3/32/2 4/34/2 2/33/2
f 5/2/3 7/3/3 1/4/3
f 7/3/4 3/5/4 1/4/4
f 8/6/5 6/7/5 2/8/5
f 4/9/6 8/6/6 2/8/6
f 5/41/7 1/42/7 2/43/7
f 6/44/8 5/41/8 2/43/8
f 3/55/9 9/56/9 4/57/9
f 9/56/10 10/58/10 4/57/10
f 9/56/11 3/55/11 7/59/11
f 13/60/12 9/56/12 7/59/12
f 4/57/13 10/58/13 8/61/13
f 10/58/14 14/62/14 8/61/14
f 13/10/15 7/11/15 5/12/15
f 11/13/16 13/10/16 5/12/16
f 8/14/17 14/15/17 6/16/17
f 14/15/18 12/17/18 6/16/18
f 11/45/19 5/41/19 6/44/19
f 12/46/20 11/45/20 6/44/20
f 9/51/21 21/52/21 10/53/21
f 21/52/22 22/54/22 10/53/22
f 19/47/23 11/45/23 12/46/23
f 20/48/24 19/47/24 12/46/24
f 13/18/25 17/19/25 9/20/25
f 17/19/26 21/21/26 9/20/26
f 18/22/27 14/23/27 10/24/27
f 22/25/28 18/22/28 10/24/28
f 15/31/29 19/35/29 17/36/29
f 19/35/30 21/37/30 17/36/30
f 20/38/31 16/33/31 18/39/31
f 22/40/32 20/38/32 18/39/32
f 13/18/33 11/26/33 17/19/33
f 11/63/34 15/64/34 17/65/34
f 14/23/35 18/22/35 12/27/35
f 12/66/36 18/67/36 16/68/36
f 11/45/37 19/47/37 15/49/37
f 12/46/38 16/50/38 20/48/38
f 21/69/39 19/70/39 22/71/39
f 19/70/40 20/72/40 22/71/40
f 23/28/41 27/29/41 25/27/41
f 27/29/42 29/30/42 25/27/42
f 28/29/43 24/28/43 26/27/43
f 30/30/44 28/29/44 26/27/44
#44 Triangles
